<?xml version="1.0" encoding="utf-8"?>
<!-- Svg Vector Icons : http://www.onlinewebfonts.com/icon -->
<!DOCTYPE svg PUBLIC "-//W3C//DTD SVG 1.1//EN" "http://www.w3.org/Graphics/SVG/1.1/DTD/svg11.dtd">
<svg version="1.1" xmlns="http://www.w3.org/2000/svg" xmlns:xlink="http://www.w3.org/1999/xlink" x="0px" y="0px" viewBox="0 0 1000 1000" enable-background="new 0 0 1000 1000" xml:space="preserve">
<metadata> Svg Vector Icons : http://www.onlinewebfonts.com/icon </metadata>
<g><path d="M719.7,714.4H281.9c-12.2,0-22.2,10-22.2,22.2c0,12.2,10,22.2,22.2,22.2h437.8c12.2,0,22.2-10,22.2-22.2C741.9,724.4,731.9,714.4,719.7,714.4L719.7,714.4z M259.7,418.9L259.7,418.9c0,12.2,10,22.2,22.2,22.2h437.8c12.2,0,22.2-10,22.2-22.2c0-12.2-10-22.2-22.2-22.2H281.9C269.7,396.7,259.7,406.7,259.7,418.9L259.7,418.9z M918.6,293.3L918.6,293.3L645.3,21.1c-6.7-6.7-15.6-11.1-26.7-11.1H173c-27.8,0-53.3,11.1-71.1,28.9c-17.8,20-30,44.4-30,72.2v777.8c0,27.8,11.1,53.3,30,71.1l0,0c17.8,17.8,43.3,30,70,30h655.6c26.7,0,52.2-11.1,70-28.9V960l0,0c18.9-17.8,30-43.3,30-71.1V320C929.7,311.1,925.3,301.1,918.6,293.3L918.6,293.3z M641.9,123.3L641.9,123.3l173.3,173.3H681.9c-10,0-21.1-4.4-28.9-11.1v-1.1c-7.8-6.7-11.1-16.7-11.1-27.8V123.3L641.9,123.3z M854.2,888.9L854.2,888.9c0,6.7-2.2,13.3-7.8,17.8l0,0c-4.4,4.4-11.1,6.7-17.8,6.7H173c-6.7,0-13.3-2.2-17.8-6.7l0,0c-4.4-4.4-7.8-11.1-7.8-17.8V111.1c0-6.7,2.2-13.3,7.8-17.8c4.4-4.4,11.1-7.8,17.8-7.8h423.3v172.2c0,23.3,8.9,43.3,23.3,58.9l1.1,1.1c15.6,15.6,36.7,25.6,60,25.6H853v545.6H854.2z M719.7,555.6L719.7,555.6H281.9c-12.2,0-22.2,10-22.2,22.2c0,12.2,10,22.2,22.2,22.2h437.8c12.2,0,22.2-10,22.2-22.2C741.9,565.6,731.9,555.6,719.7,555.6L719.7,555.6z"/></g>
</svg>